<?xml version="1.0" encoding="UTF-8"?>
<svg id="SVGDoc" width="15" height="11" xmlns="http://www.w3.org/2000/svg" version="1.1" xmlns:xlink="http://www.w3.org/1999/xlink" xmlns:avocode="https://avocode.com/" viewBox="0 0 15 11"><defs></defs><desc>Generated with Avocode.</desc><g><g><title>fa-envelope-o</title><path d="M13.9285,9.74953c0,0.13311 -0.1255,0.2504 -0.26779,0.2504h-12.32147c-0.14229,0 -0.26789,-0.11729 -0.26789,-0.2504v-5.9999c0.17576,0.18751 0.36831,0.3592 0.57764,0.51584c1.19696,0.85922 2.40231,1.73388 3.56579,2.64056c0.6278,0.49192 1.40629,1.09342 2.2768,1.09342h0.01678c0.87051,0 1.6489,-0.60149 2.27671,-1.09342c1.16358,-0.90668 2.36893,-1.78133 3.56588,-2.64056c0.20924,-0.15664 0.40178,-0.32833 0.57755,-0.51584zM13.9285,1.53849c0,0.66438 -0.68636,1.53132 -1.23043,1.92988c-1.12171,0.82026 -2.24333,1.64861 -3.35665,2.47658c-0.44355,0.33605 -1.24712,1.05483 -1.83306,1.05483h-0.01678c-0.58594,0 -1.3895,-0.71878 -1.83315,-1.05483c-1.11332,-0.82797 -2.23494,-1.65633 -3.35655,-2.47658c-0.7534,-0.55481 -1.23053,-1.32838 -1.23053,-2.21886c0,-0.13272 0.1256,-0.24963 0.26789,-0.24963h12.32147c0.31805,0 0.26779,0.34338 0.26779,0.53861zM14.99996,1.24951c0,-0.68753 -0.60272,-1.25006 -1.33924,-1.25006h-12.32147c-0.73662,0 -1.33924,0.56253 -1.33924,1.25006v8.50002c0,0.68753 0.60263,1.25006 1.33924,1.25006h12.32147c0.73652,0 1.33924,-0.56253 1.33924,-1.25006z" fill="#555555" fill-opacity="1"></path></g></g></svg>