<?xml version="1.0" encoding="UTF-8"?>
<svg id="SVGDoc" width="12" height="17" xmlns="http://www.w3.org/2000/svg" version="1.1" xmlns:xlink="http://www.w3.org/1999/xlink" xmlns:avocode="https://avocode.com/" viewBox="0 0 12 17"><defs></defs><desc>Generated with Avocode.</desc><g><g><title>fa-map-marker</title><path d="M8.99994,5.66607c0,1.56065 -1.34764,2.83347 -2.99997,2.83347c-1.65234,0 -2.99997,-1.27282 -2.99997,-2.83347c0,-1.56026 1.34764,-2.83308 2.99997,-2.83308c1.65234,0 2.99997,1.27282 2.99997,2.83308zM11.99991,5.66607c0,-3.13171 -2.68354,-5.66655 -5.99995,-5.66655c-3.3164,0 -6.00004,2.53484 -6.00004,5.66655c0,0.67557 0.08202,1.37236 0.38671,1.98158l4.27742,8.56599c0.23432,0.48729 0.77343,0.78592 1.33591,0.78592c0.56248,0 1.10159,-0.29863 1.34764,-0.78592l4.26559,-8.56599c0.3047,-0.60921 0.38671,-1.306 0.38671,-1.98158z" fill="#555555" fill-opacity="1"></path></g></g></svg>