<?xml version="1.0" encoding="UTF-8"?>
<svg id="SVGDoc" width="12" height="20" xmlns="http://www.w3.org/2000/svg" version="1.1" xmlns:xlink="http://www.w3.org/1999/xlink" xmlns:avocode="https://avocode.com/" viewBox="0 0 12 20"><defs></defs><desc>Generated with Avocode.</desc><g><g><title>fa-mobile-phone</title><path d="M7.24992,17.99974c0,0.68715 -0.56248,1.24967 -1.24998,1.24967c-0.6875,0 -1.24998,-0.56253 -1.24998,-1.24967c0,-0.68753 0.56248,-1.25006 1.24998,-1.25006c0.6875,0 1.24998,0.56253 1.24998,1.25006zM10.49995,15.49962c0,0.26583 -0.23441,0.50002 -0.50001,0.50002h-7.99999c-0.2656,0 -0.50001,-0.23419 -0.50001,-0.50002v-11.00014c0,-0.26544 0.23441,-0.49964 0.50001,-0.49964h7.99999c0.2656,0 0.50001,0.23419 0.50001,0.49964zM7.49998,2.24976c0,0.14044 -0.10939,0.24963 -0.25005,0.24963h-2.49996c-0.14067,0 -0.25005,-0.10919 -0.25005,-0.24963c0,-0.14044 0.10939,-0.2504 0.25005,-0.2504h2.49996c0.14067,0 0.25005,0.10996 0.25005,0.2504zM11.99998,1.99936c0,-1.09342 -0.90628,-1.99971 -2.00005,-1.99971h-7.99999c-1.09377,0 -1.99995,0.90629 -1.99995,1.99971v16.00038c0,1.0938 0.90618,1.99971 1.99995,1.99971h7.99999c1.09377,0 2.00005,-0.90591 2.00005,-1.99971z" fill="#555555" fill-opacity="1"></path></g></g></svg>