<svg xmlns="http://www.w3.org/2000/svg" width="48" height="49" viewBox="0 0 48 49"><g><g><path fill="#c0301c" d="M47.988 24.861c0 13.255-10.738 23.994-23.994 23.994S0 38.116 0 24.861C0 11.605 10.738.867 23.994.867S47.988 11.605 47.988 24.86zM14.327 6.705l5.195 5.195c1.42-.482 2.919-.75 4.472-.75 1.58 0 3.053.268 4.472.75l5.195-5.195a20.677 20.677 0 0 0-9.667-2.41c-3.481 0-6.775.883-9.667 2.41zm-3.294 22.628c-.482-1.42-.75-2.919-.75-4.472 0-1.58.268-3.053.75-4.472l-5.195-5.195a20.682 20.682 0 0 0-2.41 9.667c0 3.481.883 6.775 2.41 9.667zm22.628 13.684l-5.195-5.195a13.74 13.74 0 0 1-4.472.75c-1.553 0-3.053-.268-4.472-.75l-5.195 5.195a20.676 20.676 0 0 0 9.667 2.41c3.481 0 6.775-.883 9.667-2.41zm.616-18.156c0-5.677-4.606-10.283-10.283-10.283S13.711 19.184 13.711 24.86s4.606 10.283 10.283 10.283 10.283-4.606 10.283-10.283zm7.873 9.667a20.68 20.68 0 0 0 2.41-9.667c0-3.481-.883-6.775-2.41-9.667l-5.195 5.195c.482 1.42.75 2.919.75 4.472a13.87 13.87 0 0 1-.75 4.472z"/></g></g></svg>