<svg xmlns="http://www.w3.org/2000/svg" width="16" height="12" viewBox="0 0 16 12"><g><g><path fill="#fff" d="M16 1.425a7.013 7.013 0 0 1-1.888.468c.68-.374 1.198-.965 1.441-1.669-.63.348-1.34.6-2.081.732A3.403 3.403 0 0 0 11.076 0c-1.817 0-3.28 1.359-3.28 3.028 0 .234.031.468.082.694C5.158 3.59 2.731 2.39 1.117.552.832 1.002.67 1.52.67 2.081c0 1.05.579 1.978 1.462 2.522A3.515 3.515 0 0 1 .65 4.218v.038c0 1.472 1.127 2.69 2.63 2.972a3.762 3.762 0 0 1-.864.103c-.213 0-.416-.019-.62-.047.417 1.2 1.625 2.072 3.067 2.1a6.919 6.919 0 0 1-4.071 1.294c-.274 0-.528-.01-.792-.038A9.834 9.834 0 0 0 5.035 12c6.03 0 9.33-4.613 9.33-8.616 0-.131 0-.262-.01-.394A6.775 6.775 0 0 0 16 1.425z"/></g></g></svg>